<svg width="80" height="80" viewBox="0 0 80 80" fill="none" xmlns="http://www.w3.org/2000/svg">
  <g clip-path="url(#clip0_1453_10851)">
  <path d="M72 0H8C3.58172 0 0 3.58172 0 8V72C0 76.4183 3.58172 80 8 80H72C76.4183 80 80 76.4183 80 72V8C80 3.58172 76.4183 0 72 0Z" fill="white"/>
  <path d="M68 5.5H42C38.42 5.5 35.5 8.42 35.5 12V35.01H12C8.42 35.01 5.5 37.93 5.5 41.51V72C5.5 73.38 6.62 74.5 8 74.5H19.61C20.99 74.5 22.11 73.38 22.11 72V55.01H32.73V72C32.73 73.38 33.85 74.5 35.23 74.5H72C73.38 74.5 74.5 73.38 74.5 72V12C74.5 8.42 71.58 5.5 68 5.5ZM69.5 69.5H37.73V52.51C37.73 51.13 36.61 50.01 35.23 50.01H19.61C18.23 50.01 17.11 51.13 17.11 52.51V69.5H10.5V41.51C10.5 40.68 11.17 40.01 12 40.01H38C39.38 40.01 40.5 38.89 40.5 37.51V12C40.5 11.17 41.17 10.5 42 10.5H68C68.83 10.5 69.5 11.17 69.5 12V69.5Z" fill="#0B3061"/>
  <path d="M49 20.01H46C45.44 20.01 45 20.45 45 21.01V24.01C45 24.56 45.44 25.01 46 25.01H49C49.55 25.01 50 24.56 50 24.01V21.01C50 20.45 49.55 20.01 49 20.01Z" fill="#0B3061"/>
  <path d="M64 20.01H61C60.44 20.01 60 20.45 60 21.01V24.01C60 24.56 60.44 25.01 61 25.01H64C64.55 25.01 65 24.56 65 24.01V21.01C65 20.45 64.55 20.01 64 20.01Z" fill="#0B3061"/>
  <path d="M49 35.01H46C45.44 35.01 45 35.45 45 36.01V39.01C45 39.56 45.44 40.01 46 40.01H49C49.55 40.01 50 39.56 50 39.01V36.01C50 35.45 49.55 35.01 49 35.01Z" fill="#0B3061"/>
  <path d="M64 35.01H61C60.44 35.01 60 35.45 60 36.01V39.01C60 39.56 60.44 40.01 61 40.01H64C64.55 40.01 65 39.56 65 39.01V36.01C65 35.45 64.55 35.01 64 35.01Z" fill="#0B3061"/>
  <path d="M49 50.01H46C45.44 50.01 45 50.45 45 51.01V54.01C45 54.56 45.44 55.01 46 55.01H49C49.55 55.01 50 54.56 50 54.01V51.01C50 50.45 49.55 50.01 49 50.01Z" fill="#0B3061"/>
  <path d="M64 50.01H61C60.44 50.01 60 50.45 60 51.01V54.01C60 54.56 60.44 55.01 61 55.01H64C64.55 55.01 65 54.56 65 54.01V51.01C65 50.45 64.55 50.01 64 50.01Z" fill="#0B3061"/>
  <path d="M8 30H15.5C16.88 30 18 28.88 18 27.5C18 26.12 16.88 25 15.5 25H8C6.62 25 5.5 26.12 5.5 27.5C5.5 28.88 6.62 30 8 30Z" fill="#0B3061"/>
  <path d="M30 7.5C30 6.11929 28.8807 5 27.5 5C26.1193 5 25 6.11929 25 7.5V15C25 16.3807 26.1193 17.5 27.5 17.5C28.8807 17.5 30 16.3807 30 15V7.5Z" fill="#0B3061"/>
  <path d="M17.2 20.73C18.18 21.71 19.76 21.71 20.73 20.73C21.71 19.75 21.71 18.17 20.73 17.19L15.3 11.76C14.32 10.78 12.74 10.78 11.77 11.76C10.79 12.74 10.79 14.32 11.77 15.3L17.2 20.73Z" fill="#0B3061"/>
  </g>
  <defs>
  <clipPath id="clip0_1453_10851">
  <rect width="80" height="80" fill="white"/>
  </clipPath>
  </defs>
  </svg>
