<?xml version="1.0" encoding="utf-8"?>
<!-- Generator: Adobe Illustrator 28.2.0, SVG Export Plug-In . SVG Version: 6.00 Build 0)  -->
<svg version="1.1" id="Calque_1" xmlns="http://www.w3.org/2000/svg" xmlns:xlink="http://www.w3.org/1999/xlink" x="0px" y="0px"
	 viewBox="0 0 506.04 353.66" style="enable-background:new 0 0 506.04 353.66;" xml:space="preserve">
<style type="text/css">
	.st0{fill:#FFFFFF;}
</style>
<path class="st0" d="M46.73,92.67H32.71L0,0h13.37l26.48,80.34h0.26L66.84,0h12.85L46.73,92.67z"/>
<path class="st0" d="M82.68,25.57h10.38v14.15h0.26c5.32-10.77,12.72-16.09,24.66-15.7v11.68c-17.78,0-24.27,10.12-24.27,27.13
	v29.85H82.68V25.57z"/>
<path class="st0" d="M185.73,92.41c-1.95,1.17-4.41,1.82-7.92,1.82c-5.71,0-9.35-3.12-9.35-10.38c-6.1,7.14-14.28,10.38-23.62,10.38
	c-12.2,0-22.19-5.45-22.19-18.82c0-15.19,11.29-18.43,22.71-20.64c12.2-2.34,22.58-1.56,22.58-9.86c0-9.6-7.92-11.16-14.93-11.16
	c-9.34,0-16.22,2.86-16.74,12.72h-11.03c0.65-16.61,13.5-22.45,28.42-22.45c12.07,0,25.18,2.73,25.18,18.43v34.52
	c0,5.19,0,7.53,3.5,7.53c0.91,0,1.95-0.13,3.37-0.65V92.41z M167.82,58.02c-4.28,3.12-12.59,3.24-19.99,4.54
	c-7.27,1.3-13.5,3.89-13.5,12.07c0,7.27,6.23,9.86,12.98,9.86c14.54,0,20.51-9.09,20.51-15.19V58.02z"/>
<path class="st0" d="M207.66,13.5h-11.03V0h11.03V13.5z M196.63,25.57h11.03v67.1h-11.03V25.57z"/>
<path class="st0" d="M224.79,25.57h10.38v9.86h0.26c4.93-7.53,12.46-11.42,21.67-11.42c8.18,0,15.71,3.24,18.43,11.42
	c4.54-7.14,12.46-11.42,21.03-11.42c13.37,0,22.32,5.58,22.32,19.47v49.19h-11.03v-44c0-8.31-2.21-14.93-12.98-14.93
	c-10.64,0-17.52,6.75-17.52,17.13v41.79h-11.03v-44c0-8.7-2.73-14.93-12.59-14.93c-13.11,0-17.91,12.07-17.91,17.13v41.79h-11.03
	V25.57z"/>
<path class="st0" d="M392.74,71.39c-2.98,14.8-13.63,22.84-28.68,22.84c-21.42,0-31.54-14.8-32.19-35.3
	c0-20.12,13.24-34.91,31.54-34.91c23.75,0,31.02,22.19,30.37,38.42h-50.23c-0.39,11.68,6.23,22.06,20.9,22.06
	c9.09,0,15.45-4.41,17.39-13.11H392.74z M382.1,52.7c-0.52-10.51-8.44-18.95-19.34-18.95c-11.55,0-18.43,8.7-19.21,18.95H382.1z"/>
<path class="st0" d="M405.2,25.57h10.38v10.64h0.26c4.67-8.31,12.2-12.2,21.81-12.2c17.65,0,23.1,10.12,23.1,24.53v44.13h-11.03
	V47.24c0-8.18-5.19-13.5-13.63-13.5c-13.37,0-19.86,8.96-19.86,21.03v37.9H405.2V25.57z"/>
<path class="st0" d="M492.68,25.57h13.37v9.73h-13.37v41.66c0,5.06,1.43,5.97,8.31,5.97h5.06v9.73h-8.44
	c-11.42,0-15.96-2.34-15.96-14.67V35.3h-11.42v-9.73h11.42V5.45h11.03V25.57z"/>
<path class="st0" d="M46.73,196.68H32.71L0,104h13.37l26.48,80.34h0.26L66.84,104h12.85L46.73,196.68z"/>
<path class="st0" d="M82.68,129.57h10.38v14.15h0.26c5.32-10.77,12.72-16.09,24.66-15.7v11.68c-17.78,0-24.27,10.12-24.27,27.13
	v29.85H82.68V129.57z"/>
<path class="st0" d="M185.73,196.42c-1.95,1.17-4.41,1.82-7.92,1.82c-5.71,0-9.35-3.12-9.35-10.38
	c-6.1,7.14-14.28,10.38-23.62,10.38c-12.2,0-22.19-5.45-22.19-18.82c0-15.19,11.29-18.43,22.71-20.64
	c12.2-2.34,22.58-1.56,22.58-9.86c0-9.6-7.92-11.16-14.93-11.16c-9.34,0-16.22,2.86-16.74,12.72h-11.03
	c0.65-16.61,13.5-22.45,28.42-22.45c12.07,0,25.18,2.73,25.18,18.43v34.52c0,5.19,0,7.53,3.5,7.53c0.91,0,1.95-0.13,3.37-0.65
	V196.42z M167.82,162.02c-4.28,3.12-12.59,3.24-19.99,4.54c-7.27,1.3-13.5,3.89-13.5,12.07c0,7.27,6.23,9.86,12.98,9.86
	c14.54,0,20.51-9.09,20.51-15.19V162.02z"/>
<path class="st0" d="M207.66,117.5h-11.03V104h11.03V117.5z M196.63,129.57h11.03v67.1h-11.03V129.57z"/>
<path class="st0" d="M224.79,129.57h10.38v9.86h0.26c4.93-7.53,12.46-11.42,21.67-11.42c8.18,0,15.71,3.24,18.43,11.42
	c4.54-7.14,12.46-11.42,21.03-11.42c13.37,0,22.32,5.58,22.32,19.47v49.19h-11.03v-44c0-8.31-2.21-14.93-12.98-14.93
	c-10.64,0-17.52,6.75-17.52,17.13v41.79h-11.03v-44c0-8.7-2.73-14.93-12.59-14.93c-13.11,0-17.91,12.07-17.91,17.13v41.79h-11.03
	V129.57z"/>
<path class="st0" d="M392.74,175.39c-2.98,14.8-13.63,22.84-28.68,22.84c-21.42,0-31.54-14.8-32.19-35.3
	c0-20.12,13.24-34.91,31.54-34.91c23.75,0,31.02,22.19,30.37,38.42h-50.23c-0.39,11.68,6.23,22.06,20.9,22.06
	c9.09,0,15.45-4.41,17.39-13.11H392.74z M382.1,156.7c-0.52-10.51-8.44-18.95-19.34-18.95c-11.55,0-18.43,8.7-19.21,18.95H382.1z"/>
<path class="st0" d="M405.2,129.57h10.38v10.64h0.26c4.67-8.31,12.2-12.2,21.81-12.2c17.65,0,23.1,10.12,23.1,24.53v44.13h-11.03
	v-45.43c0-8.18-5.19-13.5-13.63-13.5c-13.37,0-19.86,8.96-19.86,21.03v37.9H405.2V129.57z"/>
<path class="st0" d="M492.68,129.57h13.37v9.73h-13.37v41.66c0,5.06,1.43,5.97,8.31,5.97h5.06v9.73h-8.44
	c-11.42,0-15.96-2.34-15.96-14.67v-42.7h-11.42v-9.73h11.42v-20.12h11.03V129.57z"/>
<path class="st0" d="M3.81,310.03h11.57c10.39,0,16.2,5.2,16.2,16.06c0,11.29-4.96,17.66-16.2,17.66H3.81V310.03z M8.3,339.97h7.46
	c3.07,0,11.33-0.85,11.33-13.27c0-8.03-2.98-12.89-11.24-12.89H8.3V339.97z"/>
<path class="st0" d="M57.08,336c-1.09,5.38-4.96,8.31-10.44,8.31c-7.79,0-11.48-5.38-11.71-12.84c0-7.32,4.82-12.7,11.48-12.7
	c8.64,0,11.29,8.08,11.05,13.98H39.18c-0.14,4.25,2.27,8.03,7.6,8.03c3.31,0,5.62-1.61,6.33-4.77H57.08z M53.21,329.2
	c-0.19-3.83-3.07-6.89-7.04-6.89c-4.2,0-6.71,3.16-6.99,6.89H53.21z"/>
<path class="st0" d="M63.92,336.05c0.14,3.59,3.26,4.72,6.56,4.72c2.5,0,5.9-0.57,5.9-3.64c0-3.12-3.97-3.64-7.98-4.53
	c-3.97-0.9-7.98-2.22-7.98-6.89c0-4.91,4.86-6.94,9.11-6.94c5.38,0,9.68,1.7,10.01,7.65h-4.01c-0.28-3.12-3.02-4.11-5.67-4.11
	c-2.41,0-5.19,0.66-5.19,3.12c0,2.88,4.25,3.35,7.98,4.25c4.01,0.9,7.98,2.22,7.98,6.94c0,5.81-5.43,7.7-10.39,7.7
	c-5.48,0-10.11-2.22-10.34-8.26H63.92z"/>
<path class="st0" d="M89.14,314.94h-4.01v-4.91h4.01V314.94z M85.12,319.33h4.01v24.42h-4.01V319.33z"/>
<path class="st0" d="M116.29,341.67c0,7.93-3.64,12-11.33,12c-4.58,0-9.87-1.84-10.11-7.18h4.01c0.19,2.93,3.68,3.97,6.33,3.97
	c5.24,0,7.32-3.78,7.32-9.26v-1.61h-0.09c-1.32,2.98-4.53,4.44-7.6,4.44c-7.27,0-10.91-5.71-10.91-12.37
	c0-5.76,2.83-12.89,11.29-12.89c3.07,0,5.81,1.37,7.27,4.06h0.05v-3.5h3.78V341.67z M112.32,331.04c0-4.3-1.89-8.74-6.94-8.74
	c-5.15,0-7.23,4.2-7.23,8.88c0,4.39,1.61,9.3,6.9,9.3C110.34,340.49,112.32,335.62,112.32,331.04z"/>
<path class="st0" d="M122.19,319.33h3.78v3.87h0.09c1.7-3.02,4.44-4.44,7.93-4.44c6.42,0,8.41,3.68,8.41,8.93v16.06h-4.01v-16.53
	c0-2.97-1.89-4.91-4.96-4.91c-4.86,0-7.23,3.26-7.23,7.65v13.79h-4.01V319.33z"/>
<path class="st0" d="M183.11,343.75h-4.01v-3.31H179c-1.32,2.69-4.44,3.87-7.79,3.87c-7.51,0-11.24-5.95-11.24-12.84
	c0-6.9,3.68-12.7,11.15-12.7c2.5,0,6.09,0.94,7.89,3.83h0.09v-12.56h4.01V343.75z M171.77,340.77c5.38,0,7.46-4.63,7.46-9.21
	c0-4.82-2.17-9.26-7.7-9.26c-5.48,0-7.32,4.67-7.32,9.45C164.22,336.33,166.58,340.77,171.77,340.77z"/>
<path class="st0" d="M190.04,310.03h5.24v5.24c0,3.73-1.56,6.94-5.19,6.94v-2.36c2.13,0,2.74-2.41,2.74-4.58h-2.79V310.03z"/>
<path class="st0" d="M202.94,310.03h4.49v33.72h-4.49V310.03z"/>
<path class="st0" d="M214.17,319.33h3.78v3.87h0.09c1.7-3.02,4.44-4.44,7.93-4.44c6.42,0,8.41,3.68,8.41,8.93v16.06h-4.01v-16.53
	c0-2.97-1.89-4.91-4.96-4.91c-4.86,0-7.23,3.26-7.23,7.65v13.79h-4.01V319.33z"/>
<path class="st0" d="M245.81,319.33h4.86v3.54h-4.86v15.16c0,1.84,0.52,2.17,3.02,2.17h1.84v3.54h-3.07c-4.16,0-5.81-0.85-5.81-5.34
	v-15.54h-4.16v-3.54h4.16v-7.32h4.01V319.33z"/>
<path class="st0" d="M275.8,336c-1.09,5.38-4.96,8.31-10.44,8.31c-7.79,0-11.48-5.38-11.71-12.84c0-7.32,4.82-12.7,11.48-12.7
	c8.64,0,11.29,8.08,11.05,13.98H257.9c-0.14,4.25,2.27,8.03,7.6,8.03c3.31,0,5.62-1.61,6.33-4.77H275.8z M271.92,329.2
	c-0.19-3.83-3.07-6.89-7.04-6.89c-4.2,0-6.71,3.16-6.99,6.89H271.92z M265.83,309.22h5.15l-6.19,6.75h-3.02L265.83,309.22z"/>
<path class="st0" d="M280.04,319.33h3.78v5.15h0.09c1.94-3.92,4.63-5.86,8.97-5.71v4.25c-6.47,0-8.83,3.68-8.83,9.87v10.86h-4.01
	V319.33z"/>
<path class="st0" d="M315.74,336c-1.09,5.38-4.96,8.31-10.44,8.31c-7.79,0-11.48-5.38-11.71-12.84c0-7.32,4.82-12.7,11.48-12.7
	c8.64,0,11.29,8.08,11.05,13.98h-18.28c-0.14,4.25,2.27,8.03,7.6,8.03c3.31,0,5.62-1.61,6.33-4.77H315.74z M302.38,309.22h4.39
	l4.91,6.75h-3.97l-3.26-4.53l-3.31,4.53h-3.64L302.38,309.22z M311.87,329.2c-0.19-3.83-3.07-6.89-7.04-6.89
	c-4.2,0-6.71,3.16-6.99,6.89H311.87z"/>
<path class="st0" d="M325.7,319.33h4.86v3.54h-4.86v15.16c0,1.84,0.52,2.17,3.02,2.17h1.84v3.54h-3.07c-4.16,0-5.81-0.85-5.81-5.34
	v-15.54h-4.16v-3.54h4.16v-7.32h4.01V319.33z"/>
<path class="st0" d="M373.68,339.54c-2.6,3.54-6.85,5.01-10.81,5.01c-10.06,0-16.06-8.22-16.06-17c0-9.82,5.38-18.32,16.06-18.32
	c7.37,0,13.22,3.31,14.5,11.19h-4.49c-0.9-5.1-5.01-7.41-10.01-7.41c-8.17,0-11.57,7.08-11.57,14.31c0,7.04,4.06,13.46,11.57,13.46
	c6.94,0,11.1-4.86,10.81-11h-10.77v-3.78h14.78v17.76h-2.83L373.68,339.54z"/>
<path class="st0" d="M404.32,336c-1.09,5.38-4.96,8.31-10.44,8.31c-7.79,0-11.48-5.38-11.71-12.84c0-7.32,4.82-12.7,11.48-12.7
	c8.64,0,11.29,8.08,11.05,13.98h-18.28c-0.14,4.25,2.27,8.03,7.6,8.03c3.31,0,5.62-1.61,6.33-4.77H404.32z M400.45,329.2
	c-0.19-3.83-3.07-6.89-7.04-6.89c-4.2,0-6.71,3.16-6.99,6.89H400.45z M394.36,309.22h5.15l-6.19,6.75h-3.02L394.36,309.22z"/>
<path class="st0" d="M408.71,319.33h3.78v3.87h0.09c1.7-3.02,4.44-4.44,7.93-4.44c6.42,0,8.41,3.68,8.41,8.93v16.06h-4.01v-16.53
	c0-2.97-1.89-4.91-4.96-4.91c-4.86,0-7.23,3.26-7.23,7.65v13.79h-4.01V319.33z"/>
<path class="st0" d="M455.65,336c-1.09,5.38-4.96,8.31-10.44,8.31c-7.79,0-11.48-5.38-11.71-12.84c0-7.32,4.82-12.7,11.48-12.7
	c8.64,0,11.29,8.08,11.05,13.98h-18.28c-0.14,4.25,2.27,8.03,7.6,8.03c3.31,0,5.62-1.61,6.33-4.77H455.65z M451.78,329.2
	c-0.19-3.83-3.07-6.89-7.04-6.89c-4.2,0-6.71,3.16-6.99,6.89H451.78z M445.69,309.22h5.15l-6.19,6.75h-3.02L445.69,309.22z"/>
<path class="st0" d="M459.9,319.33h3.78v5.15h0.09c1.94-3.92,4.63-5.86,8.97-5.71v4.25c-6.47,0-8.83,3.68-8.83,9.87v10.86h-4.01
	V319.33z"/>
<path class="st0" d="M497.25,343.65c-0.71,0.43-1.61,0.66-2.88,0.66c-2.08,0-3.4-1.13-3.4-3.78c-2.22,2.6-5.2,3.78-8.6,3.78
	c-4.44,0-8.08-1.98-8.08-6.85c0-5.53,4.11-6.71,8.26-7.51c4.44-0.85,8.22-0.57,8.22-3.59c0-3.5-2.88-4.06-5.43-4.06
	c-3.4,0-5.9,1.04-6.09,4.63h-4.01c0.24-6.04,4.91-8.17,10.34-8.17c4.39,0,9.16,0.99,9.16,6.71v12.56c0,1.89,0,2.74,1.27,2.74
	c0.33,0,0.71-0.05,1.23-0.24V343.65z M490.73,331.14c-1.56,1.13-4.58,1.18-7.27,1.65c-2.64,0.47-4.91,1.42-4.91,4.39
	c0,2.64,2.27,3.59,4.72,3.59c5.29,0,7.46-3.31,7.46-5.53V331.14z"/>
<path class="st0" d="M501.07,310.03h4.01v33.72h-4.01V310.03z"/>
</svg>
